<svg width="78" height="27" viewBox="0 0 78 27" fill="none" xmlns="http://www.w3.org/2000/svg">
<mask id="path-1-outside-1_2325_4301" maskUnits="userSpaceOnUse" x="-3" y="-5" width="84" height="32" fill="black">
<rect fill="white" x="-3" y="-5" width="84" height="32"/>
<path d="M4.0688 21C3.3128 21 2.8928 20.58 2.8928 19.824V2.576C2.8928 1.82 3.3128 1.4 4.0688 1.4H5.4128C6.1688 1.4 6.5888 1.82 6.5888 2.576V17.892H14.3168C15.0728 17.892 15.5208 18.34 15.5208 19.096V19.824C15.5208 20.58 15.0728 21 14.3168 21H4.0688ZM21.5679 21.308C18.0959 21.308 16.2479 18.788 16.2479 14.896V7.98C16.2479 7.224 16.6959 6.776 17.4519 6.776H18.6839C19.4399 6.776 19.8599 7.224 19.8599 7.98V14.728C19.8599 17.164 20.9239 18.284 22.4079 18.284C23.8639 18.284 26.0759 17.192 26.0759 13.748V7.98C26.0759 7.224 26.5239 6.776 27.2799 6.776H28.5119C29.2679 6.776 29.6879 7.224 29.6879 7.98V19.824C29.6879 20.58 29.2679 21 28.5119 21H27.2799C26.5239 21 26.0759 20.58 26.0759 19.824V18.48C25.4319 20.272 23.7519 21.308 21.5679 21.308ZM33.6178 21C32.8618 21 32.4418 20.58 32.4418 19.824V7.98C32.4418 7.224 32.8618 6.776 33.6178 6.776H34.8498C35.6058 6.776 36.0538 7.224 36.0538 7.98V9.296C36.6978 7.504 38.3778 6.468 40.5618 6.468C44.0338 6.468 45.8818 8.988 45.8818 12.88V19.824C45.8818 20.58 45.4338 21 44.6778 21H43.4458C42.6898 21 42.2698 20.58 42.2698 19.824V13.048C42.2698 10.612 41.2058 9.492 39.7218 9.492C38.2658 9.492 36.0538 10.584 36.0538 14.056V19.824C36.0538 20.58 35.6058 21 34.8498 21H33.6178ZM55.579 21.308C50.595 21.308 47.459 18.06 47.459 14C47.459 9.856 50.483 6.468 55.579 6.468C56.811 6.468 58.379 6.748 59.947 7.672C60.619 8.064 60.703 8.708 60.227 9.324L59.891 9.744C59.443 10.36 58.939 10.388 58.239 10.052C57.175 9.52 56.111 9.492 55.775 9.492C53.059 9.492 51.071 11.312 51.071 13.888C51.071 16.492 53.059 18.312 55.775 18.312C56.111 18.312 57.175 18.256 58.239 17.752C58.939 17.416 59.471 17.444 59.891 18.032L60.227 18.48C60.675 19.096 60.535 19.824 59.611 20.3C58.183 21.084 56.727 21.308 55.579 21.308ZM63.5614 21C62.8054 21 62.3854 20.58 62.3854 19.824V1.932C62.3854 1.176 62.8054 0.755999 63.5614 0.755999H64.7934C65.5494 0.755999 65.9974 1.176 65.9974 1.932V9.296C66.6414 7.504 68.3214 6.468 70.5054 6.468C73.9774 6.468 75.8254 8.988 75.8254 12.88V19.824C75.8254 20.58 75.3774 21 74.6214 21H73.3894C72.6334 21 72.2134 20.58 72.2134 19.824V13.048C72.2134 10.612 71.1494 9.492 69.6654 9.492C68.2094 9.492 65.9974 10.584 65.9974 14.056V19.824C65.9974 20.58 65.5494 21 64.7934 21H63.5614Z"/>
</mask>
<path d="M6.5888 17.892H1.5888V22.892H6.5888V17.892ZM4.0688 16C4.59532 16 5.73358 16.1607 6.73283 17.16C7.73209 18.1592 7.8928 19.2975 7.8928 19.824H-2.1072C-2.1072 21.1065 -1.73649 22.8328 -0.338235 24.231C1.06002 25.6293 2.78627 26 4.0688 26V16ZM7.8928 19.824V2.576H-2.1072V19.824H7.8928ZM7.8928 2.576C7.8928 3.10252 7.73209 4.24078 6.73283 5.24003C5.73357 6.23929 4.59532 6.4 4.0688 6.4V-3.6C2.78628 -3.6 1.06002 -3.22929 -0.338235 -1.83104C-1.73649 -0.432779 -2.1072 1.29347 -2.1072 2.576H7.8928ZM4.0688 6.4H5.4128V-3.6H4.0688V6.4ZM5.4128 6.4C4.88628 6.4 3.74802 6.23929 2.74877 5.24003C1.74951 4.24078 1.5888 3.10252 1.5888 2.576H11.5888C11.5888 1.29347 11.2181 -0.432779 9.81983 -1.83104C8.42157 -3.22929 6.69532 -3.6 5.4128 -3.6V6.4ZM1.5888 2.576V17.892H11.5888V2.576H1.5888ZM6.5888 22.892H14.3168V12.892H6.5888V22.892ZM14.3168 22.892C13.7081 22.892 12.6134 22.6926 11.6668 21.746C10.7202 20.7994 10.5208 19.7047 10.5208 19.096H20.5208C20.5208 17.7313 20.0974 16.0346 18.7378 14.675C17.3782 13.3154 15.6815 12.892 14.3168 12.892V22.892ZM10.5208 19.096V19.824H20.5208V19.096H10.5208ZM10.5208 19.824C10.5208 19.2091 10.7261 18.0677 11.7282 17.0995C12.7043 16.1565 13.7943 16 14.3168 16V26C15.5953 26 17.2873 25.6335 18.6764 24.2915C20.0915 22.9243 20.5208 21.1949 20.5208 19.824H10.5208ZM14.3168 16H4.0688V26H14.3168V16ZM26.0759 18.48H31.0759L21.3706 16.789L26.0759 18.48ZM21.5679 16.308C21.309 16.308 21.2546 16.2628 21.3202 16.2923C21.3973 16.3269 21.4701 16.388 21.5055 16.4321C21.548 16.485 21.2479 16.1275 21.2479 14.896H11.2479C11.2479 17.5565 11.8719 20.405 13.7064 22.6909C15.6648 25.1314 18.5067 26.308 21.5679 26.308V16.308ZM21.2479 14.896V7.98H11.2479V14.896H21.2479ZM21.2479 7.98C21.2479 8.58872 21.0486 9.68343 20.102 10.63C19.1554 11.5766 18.0606 11.776 17.4519 11.776V1.776C16.0872 1.776 14.3905 2.19936 13.0309 3.55897C11.6713 4.91857 11.2479 6.61527 11.2479 7.98H21.2479ZM17.4519 11.776H18.6839V1.776H17.4519V11.776ZM18.6839 11.776C18.069 11.776 16.9276 11.5707 15.9595 10.5686C15.0165 9.59246 14.8599 8.5025 14.8599 7.98H24.8599C24.8599 6.7015 24.4934 5.00954 23.1514 3.62044C21.7842 2.2053 20.0548 1.776 18.6839 1.776V11.776ZM14.8599 7.98V14.728H24.8599V7.98H14.8599ZM14.8599 14.728C14.8599 16.5861 15.2545 18.7076 16.6205 20.4761C18.1175 22.414 20.2861 23.284 22.4079 23.284V13.284C22.6705 13.284 23.0572 13.3355 23.4876 13.5351C23.9298 13.7402 24.2859 14.0413 24.5344 14.3629C24.9974 14.9624 24.8599 15.3059 24.8599 14.728H14.8599ZM22.4079 23.284C24.2807 23.284 26.4809 22.6083 28.2452 20.9196C30.1164 19.1286 31.0759 16.6102 31.0759 13.748H21.0759C21.0759 14.0719 21.0248 14.1553 21.0528 14.0839C21.0845 14.0033 21.168 13.851 21.3306 13.6954C21.4844 13.5483 21.6571 13.4471 21.8234 13.3841C21.9777 13.3256 22.1668 13.284 22.4079 13.284V23.284ZM31.0759 13.748V7.98H21.0759V13.748H31.0759ZM31.0759 7.98C31.0759 8.58872 30.8766 9.68343 29.93 10.63C28.9834 11.5766 27.8886 11.776 27.2799 11.776V1.776C25.9152 1.776 24.2185 2.19936 22.8589 3.55897C21.4993 4.91857 21.0759 6.61527 21.0759 7.98H31.0759ZM27.2799 11.776H28.5119V1.776H27.2799V11.776ZM28.5119 11.776C27.897 11.776 26.7556 11.5707 25.7875 10.5686C24.8445 9.59246 24.6879 8.5025 24.6879 7.98H34.6879C34.6879 6.7015 34.3214 5.00954 32.9794 3.62044C31.6122 2.2053 29.8828 1.776 28.5119 1.776V11.776ZM24.6879 7.98V19.824H34.6879V7.98H24.6879ZM24.6879 19.824C24.6879 19.2975 24.8486 18.1592 25.8479 17.16C26.8471 16.1607 27.9854 16 28.5119 16V26C29.7944 26 31.5207 25.6293 32.919 24.231C34.3172 22.8328 34.6879 21.1065 34.6879 19.824H24.6879ZM28.5119 16H27.2799V26H28.5119V16ZM27.2799 16C27.8024 16 28.8924 16.1565 29.8685 17.0995C30.8706 18.0677 31.0759 19.2091 31.0759 19.824H21.0759C21.0759 21.1949 21.5052 22.9243 22.9204 24.2915C24.3095 25.6335 26.0014 26 27.2799 26V16ZM31.0759 19.824V18.48H21.0759V19.824H31.0759ZM21.3706 16.789C21.3937 16.7245 21.4399 16.6319 21.5184 16.5348C21.5965 16.4382 21.681 16.3687 21.7512 16.3249C21.8929 16.2364 21.8772 16.308 21.5679 16.308V26.308C25.3984 26.308 29.279 24.3512 30.7813 20.171L21.3706 16.789ZM36.0538 9.296H31.0538L40.7591 10.987L36.0538 9.296ZM33.6178 16C34.1443 16 35.2825 16.1607 36.2818 17.16C37.2811 18.1592 37.4418 19.2975 37.4418 19.824H27.4418C27.4418 21.1065 27.8125 22.8328 29.2107 24.231C30.609 25.6293 32.3352 26 33.6178 26V16ZM37.4418 19.824V7.98H27.4418V19.824H37.4418ZM37.4418 7.98C37.4418 8.5025 37.2852 9.59246 36.3422 10.5686C35.3741 11.5707 34.2327 11.776 33.6178 11.776V1.776C32.2469 1.776 30.5175 2.2053 29.1503 3.62044C27.8083 5.00954 27.4418 6.7015 27.4418 7.98H37.4418ZM33.6178 11.776H34.8498V1.776H33.6178V11.776ZM34.8498 11.776C34.241 11.776 33.1463 11.5766 32.1997 10.63C31.2531 9.68343 31.0538 8.58872 31.0538 7.98H41.0538C41.0538 6.61527 40.6304 4.91857 39.2708 3.55896C37.9112 2.19936 36.2145 1.776 34.8498 1.776V11.776ZM31.0538 7.98V9.296H41.0538V7.98H31.0538ZM40.7591 10.987C40.736 11.0515 40.6898 11.1441 40.6113 11.2412C40.5332 11.3378 40.4487 11.4073 40.3785 11.4511C40.2368 11.5396 40.2525 11.468 40.5618 11.468V1.468C36.7313 1.468 32.8507 3.42481 31.3484 7.60501L40.7591 10.987ZM40.5618 11.468C40.8207 11.468 40.8751 11.5132 40.8095 11.4837C40.7324 11.4491 40.6596 11.388 40.6242 11.3439C40.5817 11.291 40.8818 11.6485 40.8818 12.88H50.8818C50.8818 10.2195 50.2578 7.37098 48.4233 5.08506C46.4649 2.64465 43.623 1.468 40.5618 1.468V11.468ZM40.8818 12.88V19.824H50.8818V12.88H40.8818ZM40.8818 19.824C40.8818 19.2091 41.0871 18.0677 42.0892 17.0995C43.0653 16.1565 44.1553 16 44.6778 16V26C45.9563 26 47.6482 25.6335 49.0373 24.2915C50.4525 22.9243 50.8818 21.1949 50.8818 19.824H40.8818ZM44.6778 16H43.4458V26H44.6778V16ZM43.4458 16C43.9723 16 45.1105 16.1607 46.1098 17.16C47.1091 18.1592 47.2698 19.2975 47.2698 19.824H37.2698C37.2698 21.1065 37.6405 22.8328 39.0387 24.231C40.437 25.6293 42.1632 26 43.4458 26V16ZM47.2698 19.824V13.048H37.2698V19.824H47.2698ZM47.2698 13.048C47.2698 11.1899 46.8752 9.06835 45.5092 7.29994C44.0122 5.36196 41.8436 4.492 39.7218 4.492V14.492C39.4592 14.492 39.0725 14.4405 38.6421 14.2409C38.1999 14.0358 37.8438 13.7347 37.5953 13.4131C37.1323 12.8136 37.2698 12.4701 37.2698 13.048H47.2698ZM39.7218 4.492C37.8471 4.492 35.6421 5.16923 33.8755 6.86849C32.0052 8.66756 31.0538 11.192 31.0538 14.056H41.0538C41.0538 13.7203 41.1064 13.6281 41.081 13.6934C41.0519 13.7682 40.9707 13.919 40.808 14.0755C40.6539 14.2237 40.4796 14.3265 40.3107 14.3907C40.1538 14.4503 39.9631 14.492 39.7218 14.492V4.492ZM31.0538 14.056V19.824H41.0538V14.056H31.0538ZM31.0538 19.824C31.0538 19.2091 31.2591 18.0677 32.2612 17.0995C33.2373 16.1565 34.3273 16 34.8498 16V26C36.1283 26 37.8202 25.6335 39.2093 24.2915C40.6245 22.9243 41.0538 21.1949 41.0538 19.824H31.0538ZM34.8498 16H33.6178V26H34.8498V16ZM59.947 7.672L57.4085 11.9797L57.418 11.9853L57.4276 11.9909L59.947 7.672ZM60.227 9.324L64.1313 12.4475L64.1576 12.4146L64.1834 12.3812L60.227 9.324ZM59.891 9.744L55.9866 6.62053L55.9148 6.71023L55.8473 6.80314L59.891 9.744ZM58.239 10.052L56.0029 14.5241L56.0389 14.5422L56.0753 14.5596L58.239 10.052ZM58.239 17.752L60.3794 22.2707L60.391 22.2652L60.4026 22.2596L58.239 17.752ZM59.891 18.032L55.8223 20.9382L55.8561 20.9855L55.891 21.032L59.891 18.032ZM60.227 18.48L64.2706 15.5391L64.249 15.5094L64.227 15.48L60.227 18.48ZM59.611 20.3L57.3212 15.8551L57.2625 15.8853L57.2047 15.9171L59.611 20.3ZM55.579 16.308C54.1922 16.308 53.4365 15.8729 53.0703 15.5294C52.7082 15.1898 52.459 14.6999 52.459 14H42.459C42.459 21.119 48.1408 26.308 55.579 26.308V16.308ZM52.459 14C52.459 13.1656 52.7474 12.6041 53.1074 12.2512C53.4536 11.912 54.1734 11.468 55.579 11.468V1.468C51.8885 1.468 48.5483 2.71795 46.1085 5.10876C43.6826 7.48593 42.459 10.6904 42.459 14H52.459ZM55.579 11.468C56.0709 11.468 56.7314 11.5807 57.4085 11.9797L62.4854 3.36431C60.0265 1.91533 57.551 1.468 55.579 1.468V11.468ZM57.4276 11.9909C56.7965 11.6228 55.8223 10.7309 55.5791 9.19691C55.3486 7.74303 55.9347 6.70136 56.2705 6.26676L64.1834 12.3812C64.9952 11.3306 65.7773 9.65897 65.4558 7.63109C65.1216 5.52308 63.7694 4.11322 62.4663 3.35311L57.4276 11.9909ZM56.3226 6.20053L55.9866 6.62053L63.7953 12.8675L64.1313 12.4475L56.3226 6.20053ZM55.8473 6.80314C56.1429 6.39667 56.9619 5.53712 58.3895 5.31463C59.5935 5.12699 60.3999 5.54307 60.4026 5.54439L56.0753 14.5596C56.778 14.8969 58.1864 15.467 59.9294 15.1954C61.896 14.8889 63.191 13.7073 63.9346 12.6849L55.8473 6.80314ZM60.475 5.57986C58.3662 4.52546 56.3663 4.492 55.775 4.492V14.492C55.7836 14.492 55.8371 14.492 55.912 14.5045C55.9482 14.5105 55.9773 14.5176 55.9975 14.5237C56.0176 14.5299 56.0182 14.5318 56.0029 14.5241L60.475 5.57986ZM55.775 4.492C50.6514 4.492 46.071 8.20954 46.071 13.888H56.071C56.071 13.8879 56.071 13.8931 56.0699 13.9034C56.0689 13.9136 56.067 13.9282 56.0633 13.9465C56.0557 13.9841 56.0419 14.0323 56.0184 14.0872C55.9689 14.2023 55.8936 14.3072 55.8073 14.3874C55.6218 14.5597 55.5402 14.492 55.775 14.492V4.492ZM46.071 13.888C46.071 19.5741 50.6295 23.312 55.775 23.312V13.312C55.5407 13.312 55.627 13.2449 55.8155 13.4207C55.9029 13.5022 55.9764 13.6066 56.0236 13.7173C56.0709 13.8281 56.071 13.8961 56.071 13.888H46.071ZM55.775 23.312C56.4857 23.312 58.3801 23.2177 60.3794 22.2707L56.0985 13.2333C56.0898 13.2375 56.0642 13.2485 56.0201 13.2616C55.9763 13.2747 55.9263 13.2864 55.8739 13.2955C55.8219 13.3046 55.7788 13.3093 55.7523 13.3114C55.7238 13.3137 55.7277 13.312 55.775 13.312V23.312ZM60.4026 22.2596C60.3628 22.2787 59.6086 22.6568 58.4717 22.4965C57.092 22.3019 56.2156 21.4888 55.8223 20.9382L63.9596 15.1258C63.1463 13.9872 61.7939 12.8661 59.8682 12.5945C58.1853 12.3572 56.8151 12.8893 56.0753 13.2444L60.4026 22.2596ZM55.891 21.032L56.227 21.48L64.227 15.48L63.891 15.032L55.891 21.032ZM56.1833 21.4209C55.6966 20.7517 55.2015 19.4981 55.64 18.0203C56.0525 16.6299 57.0034 16.0188 57.3212 15.8551L61.9007 24.7449C63.1425 24.1052 64.6254 22.8921 65.2269 20.8647C65.8544 18.7499 65.2053 16.8243 64.2706 15.5391L56.1833 21.4209ZM57.2047 15.9171C56.6856 16.2021 56.1059 16.308 55.579 16.308V26.308C57.348 26.308 59.6803 25.9659 62.0172 24.6829L57.2047 15.9171ZM65.9974 9.296H60.9974L70.7027 10.987L65.9974 9.296ZM63.5614 16C64.0879 16 65.2261 16.1607 66.2254 17.16C67.2247 18.1592 67.3854 19.2975 67.3854 19.824H57.3854C57.3854 21.1065 57.7561 22.8328 59.1543 24.231C60.5526 25.6293 62.2788 26 63.5614 26V16ZM67.3854 19.824V1.932H57.3854V19.824H67.3854ZM67.3854 1.932C67.3854 2.45853 67.2247 3.59678 66.2254 4.59603C65.2261 5.59529 64.0879 5.756 63.5614 5.756V-4.244C62.2788 -4.244 60.5526 -3.87329 59.1543 -2.47503C57.7561 -1.07678 57.3854 0.649472 57.3854 1.932H67.3854ZM63.5614 5.756H64.7934V-4.244H63.5614V5.756ZM64.7934 5.756C64.2709 5.756 63.1809 5.59947 62.2048 4.65646C61.2027 3.68829 60.9974 2.54691 60.9974 1.932H70.9974C70.9974 0.561088 70.5681 -1.16829 69.1529 -2.53546C67.7638 -3.87747 66.0719 -4.244 64.7934 -4.244V5.756ZM60.9974 1.932V9.296H70.9974V1.932H60.9974ZM70.7027 10.987C70.6796 11.0515 70.6334 11.1441 70.5549 11.2412C70.4768 11.3378 70.3923 11.4073 70.3221 11.4511C70.1804 11.5396 70.1961 11.468 70.5054 11.468V1.468C66.6749 1.468 62.7942 3.42481 61.292 7.60501L70.7027 10.987ZM70.5054 11.468C70.7643 11.468 70.8186 11.5132 70.7531 11.4837C70.6759 11.4491 70.6032 11.388 70.5678 11.3439C70.5253 11.291 70.8254 11.6485 70.8254 12.88H80.8254C80.8254 10.2195 80.2014 7.37098 78.3669 5.08506C76.4085 2.64465 73.5666 1.468 70.5054 1.468V11.468ZM70.8254 12.88V19.824H80.8254V12.88H70.8254ZM70.8254 19.824C70.8254 19.2091 71.0307 18.0677 72.0328 17.0995C73.0089 16.1565 74.0989 16 74.6214 16V26C75.8999 26 77.5918 25.6335 78.9809 24.2915C80.3961 22.9243 80.8254 21.1949 80.8254 19.824H70.8254ZM74.6214 16H73.3894V26H74.6214V16ZM73.3894 16C73.9159 16 75.0541 16.1607 76.0534 17.16C77.0527 18.1592 77.2134 19.2975 77.2134 19.824H67.2134C67.2134 21.1065 67.5841 22.8328 68.9823 24.231C70.3806 25.6293 72.1068 26 73.3894 26V16ZM77.2134 19.824V13.048H67.2134V19.824H77.2134ZM77.2134 13.048C77.2134 11.1899 76.8188 9.06835 75.4528 7.29994C73.9558 5.36196 71.7872 4.492 69.6654 4.492V14.492C69.4028 14.492 69.016 14.4405 68.5857 14.2409C68.1435 14.0358 67.7874 13.7347 67.5389 13.4131C67.0759 12.8136 67.2134 12.4701 67.2134 13.048H77.2134ZM69.6654 4.492C67.7907 4.492 65.5857 5.16923 63.8191 6.86849C61.9488 8.66756 60.9974 11.192 60.9974 14.056H70.9974C70.9974 13.7203 71.05 13.6281 71.0246 13.6934C70.9954 13.7682 70.9143 13.919 70.7516 14.0755C70.5975 14.2237 70.4232 14.3265 70.2542 14.3907C70.0974 14.4503 69.9067 14.492 69.6654 14.492V4.492ZM60.9974 14.056V19.824H70.9974V14.056H60.9974ZM60.9974 19.824C60.9974 19.2091 61.2027 18.0677 62.2048 17.0995C63.1809 16.1565 64.2709 16 64.7934 16V26C66.0719 26 67.7638 25.6335 69.1529 24.2915C70.5681 22.9243 70.9974 21.1949 70.9974 19.824H60.9974ZM64.7934 16H63.5614V26H64.7934V16Z" fill="white" mask="url(#path-1-outside-1_2325_4301)"/>
<path d="M4.0688 21C3.3128 21 2.8928 20.58 2.8928 19.824V2.576C2.8928 1.82 3.3128 1.4 4.0688 1.4H5.4128C6.1688 1.4 6.5888 1.82 6.5888 2.576V17.892H14.3168C15.0728 17.892 15.5208 18.34 15.5208 19.096V19.824C15.5208 20.58 15.0728 21 14.3168 21H4.0688ZM21.5679 21.308C18.0959 21.308 16.2479 18.788 16.2479 14.896V7.98C16.2479 7.224 16.6959 6.776 17.4519 6.776H18.6839C19.4399 6.776 19.8599 7.224 19.8599 7.98V14.728C19.8599 17.164 20.9239 18.284 22.4079 18.284C23.8639 18.284 26.0759 17.192 26.0759 13.748V7.98C26.0759 7.224 26.5239 6.776 27.2799 6.776H28.5119C29.2679 6.776 29.6879 7.224 29.6879 7.98V19.824C29.6879 20.58 29.2679 21 28.5119 21H27.2799C26.5239 21 26.0759 20.58 26.0759 19.824V18.48C25.4319 20.272 23.7519 21.308 21.5679 21.308ZM33.6178 21C32.8618 21 32.4418 20.58 32.4418 19.824V7.98C32.4418 7.224 32.8618 6.776 33.6178 6.776H34.8498C35.6058 6.776 36.0538 7.224 36.0538 7.98V9.296C36.6978 7.504 38.3778 6.468 40.5618 6.468C44.0338 6.468 45.8818 8.988 45.8818 12.88V19.824C45.8818 20.58 45.4338 21 44.6778 21H43.4458C42.6898 21 42.2698 20.58 42.2698 19.824V13.048C42.2698 10.612 41.2058 9.492 39.7218 9.492C38.2658 9.492 36.0538 10.584 36.0538 14.056V19.824C36.0538 20.58 35.6058 21 34.8498 21H33.6178ZM55.579 21.308C50.595 21.308 47.459 18.06 47.459 14C47.459 9.856 50.483 6.468 55.579 6.468C56.811 6.468 58.379 6.748 59.947 7.672C60.619 8.064 60.703 8.708 60.227 9.324L59.891 9.744C59.443 10.36 58.939 10.388 58.239 10.052C57.175 9.52 56.111 9.492 55.775 9.492C53.059 9.492 51.071 11.312 51.071 13.888C51.071 16.492 53.059 18.312 55.775 18.312C56.111 18.312 57.175 18.256 58.239 17.752C58.939 17.416 59.471 17.444 59.891 18.032L60.227 18.48C60.675 19.096 60.535 19.824 59.611 20.3C58.183 21.084 56.727 21.308 55.579 21.308ZM63.5614 21C62.8054 21 62.3854 20.58 62.3854 19.824V1.932C62.3854 1.176 62.8054 0.755999 63.5614 0.755999H64.7934C65.5494 0.755999 65.9974 1.176 65.9974 1.932V9.296C66.6414 7.504 68.3214 6.468 70.5054 6.468C73.9774 6.468 75.8254 8.988 75.8254 12.88V19.824C75.8254 20.58 75.3774 21 74.6214 21H73.3894C72.6334 21 72.2134 20.58 72.2134 19.824V13.048C72.2134 10.612 71.1494 9.492 69.6654 9.492C68.2094 9.492 65.9974 10.584 65.9974 14.056V19.824C65.9974 20.58 65.5494 21 64.7934 21H63.5614Z" fill="#B22A2E"/>
</svg>
