<svg width="45" height="50" viewBox="0 0 45 50" fill="none" xmlns="http://www.w3.org/2000/svg">
<g id="Logo">
<g id="Group">
<path id="Vector" d="M6.6147 10.2639C1.47369 19.2612 15.2525 24.6475 22.1677 25.1828C22.1833 25.1828 22.2013 25.1828 22.2169 25.185C23.841 21.8551 24.587 18.2419 23.8052 14.6176C22.7165 9.56133 19.4527 5.86339 13.8211 5.74964C10.5909 5.68496 8.1402 7.59192 6.6147 10.2617V10.2639Z" fill="#E0CC00"/>
<path id="Vector_2" d="M28.0667 11.8766C29.5339 16.5202 29.0456 21.1526 27.323 25.4371C31.8278 25.5464 36.4177 25.3479 40.7859 24.7547C41.953 24.5963 42.8983 25.0491 43.4001 25.7717L43.6398 25.8565L42.6743 21.0456L43.5592 16.6451L42.6743 12.2468L43.5592 7.84407L42.7998 3.74912L38.8034 3.00195L34.489 3.88295L30.1768 3.00195L25.8602 3.88295L20.8379 3.00195H20.8401C24.1734 4.94237 26.8817 8.12509 28.0667 11.8766Z" fill="#006E42"/>
<path id="Vector_3" d="M42.8093 29.0787C37.2942 35.7519 31.0779 41.8453 24.5234 47.5572L27.9575 48.2464L31.7433 47.4791L35.5335 48.2464L39.326 47.4791L43.3917 48.1304L42.7331 44.031L43.5037 40.2037L42.7331 36.372L43.5037 32.538L42.8116 29.0742L42.8093 29.0787Z" fill="#FF4D00"/>
<path id="Vector_4" d="M20.5038 44.7518C25.8553 40.1216 30.9852 35.2393 35.7073 30.0024C32.1366 30.3147 28.427 30.4641 24.7823 30.2634C22.0136 34.5167 18.1449 38.2168 14.0657 40.9446C11.4919 42.6664 9.07482 38.5893 11.624 36.8853C14.4085 35.023 17.1705 32.5339 19.3949 29.6701C16.662 29.2084 14.0321 28.4947 11.6106 27.4219C7.10578 25.428 3.56419 21.9664 1.95133 18.041L3.12065 24.8659L1.79004 30.6136L3.12065 36.359L1.79004 42.1088L3.01985 47.5085L6.04621 48.5211L9.63484 47.1963L13.2279 48.5211L16.8233 47.1963L20.4522 48.5189C19.3031 47.7539 19.1732 45.9004 20.5038 44.7473V44.7518Z" fill="#DB001C"/>
<path id="Vector_5" d="M40.7857 24.7565C36.4153 25.3498 31.8254 25.5483 27.3228 25.439C29.0477 21.1545 29.536 16.5243 28.0665 11.8784C25.1992 2.81201 13.4365 -2.95793 5.44157 4.25283C-3.28135 12.1215 1.94479 23.1551 11.6108 27.4307C14.0323 28.5013 16.6622 29.2172 19.3951 29.6789C17.1729 32.5427 14.4087 35.0318 11.6265 36.8941C9.07724 38.5981 11.4943 42.6752 14.0682 40.9534C18.1474 38.2257 22.016 34.5255 24.7848 30.2722C28.4294 30.4729 32.139 30.3257 35.7097 30.0113C30.9876 35.2459 25.8578 40.1304 20.5062 44.7606C19.1733 45.9137 19.3033 47.7671 20.4547 48.5322C21.3171 49.1054 22.9345 48.9448 23.9291 48.0839C30.833 42.1087 37.3786 35.721 43.1423 28.6864C44.7104 26.7728 43.2364 24.4264 40.788 24.7588L40.7857 24.7565ZM22.1683 25.1803C15.2532 24.645 1.47437 19.2587 6.61538 10.2614C8.14088 7.59167 10.5915 5.68472 13.8218 5.7494C19.4556 5.86315 22.7172 9.56108 23.8058 14.6173C24.5854 18.2416 23.8417 21.8548 22.2176 25.1848C22.2019 25.1848 22.184 25.1848 22.1683 25.1825V25.1803Z" fill="white" stroke="white" stroke-width="0.75" stroke-miterlimit="10"/>
</g>
</g>
</svg>
