<svg width="90" height="27" viewBox="0 0 90 27" fill="none" xmlns="http://www.w3.org/2000/svg">
<mask id="path-1-outside-1_2325_4302" maskUnits="userSpaceOnUse" x="-4" y="-5" width="99" height="33" fill="black">
<rect fill="white" x="-4" y="-5" width="99" height="33"/>
<path d="M8.31912 21.308C4.73512 21.308 2.18712 19.656 1.15112 17.192C0.843124 16.464 1.23512 15.932 1.99112 15.764L2.97112 15.512C3.69912 15.344 4.06312 15.624 4.45512 16.296C5.09912 17.416 6.47112 18.228 8.26312 18.228C10.5031 18.228 11.8751 17.192 11.8751 15.708C11.8751 14.476 10.8951 13.636 9.35512 13.076L6.63912 12.124C3.61512 11.144 1.73912 9.156 1.73912 6.748C1.73912 3.248 4.76312 1.092 8.37512 1.092C11.4271 1.092 13.6111 2.52 14.5911 4.732C14.9271 5.432 14.5911 6.02 13.8351 6.216L12.9391 6.468C12.2391 6.692 11.7911 6.412 11.4271 5.768C10.8671 4.704 9.83112 4.2 8.40312 4.2C6.80712 4.2 5.40712 5.04 5.40712 6.552C5.40712 7.308 5.71512 8.232 7.67512 8.96L10.4191 9.968C13.9751 11.116 15.4591 13.244 15.4871 15.512C15.4871 19.18 12.4631 21.308 8.31912 21.308ZM18.4794 21C17.7234 21 17.3034 20.58 17.3034 19.824V7.98C17.3034 7.224 17.7234 6.776 18.4794 6.776H19.7114C20.4674 6.776 20.9154 7.224 20.9154 7.98V9.296C21.5594 7.504 23.2394 6.468 25.4234 6.468C28.8954 6.468 30.7434 8.988 30.7434 12.88V19.824C30.7434 20.58 30.2954 21 29.5394 21H28.3074C27.5514 21 27.1314 20.58 27.1314 19.824V13.048C27.1314 10.612 26.0674 9.492 24.5834 9.492C23.1274 9.492 20.9154 10.584 20.9154 14.056V19.824C20.9154 20.58 20.4674 21 19.7114 21H18.4794ZM39.2926 21.308C35.1766 21.308 32.3486 18.032 32.3486 13.888C32.3486 9.744 35.1766 6.468 39.2926 6.468C41.1686 6.468 42.9046 7.168 44.1086 8.904V7.98C44.1086 7.224 44.5286 6.776 45.2846 6.776H46.5166C47.2726 6.776 47.7206 7.224 47.7206 7.98V19.824C47.7206 20.58 47.2726 21 46.5166 21H45.2846C44.5286 21 44.1086 20.58 44.1086 19.824V18.872C42.9046 20.608 41.1686 21.308 39.2926 21.308ZM39.9926 18.312C42.4846 18.312 44.1366 16.436 44.1646 13.888C44.1366 11.34 42.4846 9.464 39.9926 9.464C37.4446 9.464 35.9606 11.48 35.9606 13.888C35.9606 16.324 37.4446 18.312 39.9926 18.312ZM57.5862 21.308C52.6022 21.308 49.4662 18.06 49.4662 14C49.4662 9.856 52.4902 6.468 57.5862 6.468C58.8182 6.468 60.3862 6.748 61.9542 7.672C62.6262 8.064 62.7102 8.708 62.2342 9.324L61.8982 9.744C61.4502 10.36 60.9462 10.388 60.2462 10.052C59.1822 9.52 58.1182 9.492 57.7822 9.492C55.0662 9.492 53.0782 11.312 53.0782 13.888C53.0782 16.492 55.0662 18.312 57.7822 18.312C58.1182 18.312 59.1822 18.256 60.2462 17.752C60.9462 17.416 61.4782 17.444 61.8982 18.032L62.2342 18.48C62.6822 19.096 62.5422 19.824 61.6182 20.3C60.1902 21.084 58.7342 21.308 57.5862 21.308ZM75.1166 21.308C72.5126 21.308 71.3366 19.74 70.3566 18.088L67.9766 14.028V19.824C67.9766 20.58 67.5286 21 66.7726 21H65.5406C64.7846 21 64.3646 20.58 64.3646 19.824V1.932C64.3646 1.176 64.7846 0.755999 65.5406 0.755999H66.7726C67.5286 0.755999 67.9766 1.176 67.9766 1.932V12.656L71.8966 7.504C72.2326 7 72.6806 6.776 73.3246 6.776H74.7806C75.7886 6.776 76.0966 7.448 75.4806 8.232L71.3926 13.328L73.4926 16.632C74.2206 17.724 74.6966 18.284 75.7326 18.284C75.9286 18.284 76.3766 18.256 76.7966 18.088C77.2726 17.92 77.5526 18.004 77.7766 18.396L78.3086 19.488C78.5046 19.88 78.3646 20.384 77.6366 20.748C76.6286 21.252 75.6206 21.308 75.1166 21.308ZM83.6133 21.308C81.2333 21.308 79.2173 20.356 78.2653 18.508C77.9013 17.752 78.2933 17.22 79.0493 17.024L79.7773 16.856C80.4493 16.688 80.7853 16.996 81.2613 17.528C81.7653 18.144 82.6333 18.536 83.6133 18.536C84.8453 18.536 85.7133 17.864 85.7133 16.968C85.7133 16.212 85.1253 15.82 84.2013 15.484L82.3813 14.84C80.5613 14.28 78.6013 13.16 78.6013 10.836C78.6013 8.316 80.6733 6.468 83.6133 6.468C85.4053 6.468 87.0573 7.056 88.0373 8.736C88.5133 9.464 88.1213 10.052 87.3373 10.248L86.6933 10.416C86.0213 10.584 85.6573 10.332 85.2093 9.856C84.7893 9.352 84.2293 9.212 83.6693 9.212C82.5773 9.212 81.9333 9.884 81.9333 10.696C81.9333 11.452 82.6053 11.844 83.3893 12.096L85.2933 12.768C88.1213 13.664 89.0173 15.316 89.0453 16.94C89.0453 19.796 86.5253 21.308 83.6133 21.308Z"/>
</mask>
<path d="M1.15112 17.192L5.7603 15.2541L5.75596 15.2438L1.15112 17.192ZM1.99112 15.764L3.07578 20.6449L3.15637 20.627L3.23633 20.6065L1.99112 15.764ZM2.97112 15.512L1.84683 10.64L1.78619 10.654L1.72592 10.6695L2.97112 15.512ZM4.45512 16.296L8.78966 13.8036L8.78188 13.7901L8.77402 13.7766L4.45512 16.296ZM9.35512 13.076L11.0638 8.37703L11.0365 8.36709L11.009 8.35747L9.35512 13.076ZM6.63912 12.124L8.29304 7.40547L8.23703 7.38583L8.18057 7.36754L6.63912 12.124ZM14.5911 4.732L10.0197 6.75732L10.0505 6.82698L10.0835 6.89566L14.5911 4.732ZM13.8351 6.216L12.5803 1.37602L12.5307 1.38887L12.4814 1.40274L13.8351 6.216ZM12.9391 6.468L11.5854 1.65474L11.4999 1.6788L11.4152 1.70588L12.9391 6.468ZM11.4271 5.768L7.00253 8.09673L7.03744 8.16305L7.07431 8.22829L11.4271 5.768ZM7.67512 8.96L5.93419 13.6471L5.94261 13.6503L5.95104 13.6533L7.67512 8.96ZM10.4191 9.968L8.69504 14.6613L8.78838 14.6956L8.88302 14.7262L10.4191 9.968ZM15.4871 15.512H20.4871V15.4811L20.4867 15.4503L15.4871 15.512ZM8.31912 16.308C7.29378 16.308 6.66827 16.0742 6.33203 15.8746C6.0116 15.6843 5.85138 15.4707 5.76029 15.2541L-3.45804 19.1299C-1.4909 23.8085 3.14312 26.308 8.31912 26.308V16.308ZM5.75596 15.2438C6.09611 16.0478 6.29881 17.5074 5.40531 18.9289C4.62288 20.1736 3.51968 20.5463 3.07578 20.6449L0.906472 10.8831C-0.29343 11.1497 -1.97063 11.8724 -3.06106 13.6071C-4.26256 15.5186 -4.10186 17.6082 -3.45371 19.1402L5.75596 15.2438ZM3.23633 20.6065L4.21633 20.3545L1.72592 10.6695L0.745919 10.9215L3.23633 20.6065ZM4.09542 20.384C3.64709 20.4874 2.53117 20.6055 1.3443 19.9221C0.402533 19.3799 0.0480469 18.6642 0.13623 18.8154L8.77402 13.7766C8.4702 13.2558 7.73772 12.0641 6.33395 11.2559C4.68508 10.3065 3.02316 10.3686 1.84683 10.64L4.09542 20.384ZM0.120593 18.7884C1.79527 21.7008 4.97839 23.228 8.26312 23.228V13.228C7.96386 13.228 8.40298 13.1312 8.78966 13.8036L0.120593 18.7884ZM8.26312 23.228C10.0871 23.228 12.1041 22.8141 13.8132 21.5947C15.6538 20.2815 16.8751 18.182 16.8751 15.708H6.87512C6.87512 15.2874 6.97797 14.816 7.21713 14.369C7.45221 13.9296 7.75446 13.6331 8.0051 13.4543C8.46813 13.1239 8.67915 13.228 8.26312 13.228V23.228ZM16.8751 15.708C16.8751 11.1135 13.049 9.09892 11.0638 8.37703L7.64641 17.775C8.05202 17.9225 7.94225 17.9585 7.67132 17.6897C7.51277 17.5324 7.29892 17.2689 7.1292 16.8872C6.95458 16.4944 6.87512 16.0844 6.87512 15.708H16.8751ZM11.009 8.35747L8.29304 7.40547L4.98521 16.8425L7.70121 17.7945L11.009 8.35747ZM8.18057 7.36754C7.29131 7.07935 6.8735 6.73698 6.7345 6.58591C6.67241 6.51843 6.67943 6.50549 6.70095 6.55761C6.72488 6.61555 6.73912 6.6877 6.73912 6.748H-3.26088C-3.26088 12.1954 0.983938 15.5473 5.09768 16.8805L8.18057 7.36754ZM6.73912 6.748C6.73912 6.67237 6.74707 6.62889 6.7512 6.61074C6.75529 6.59279 6.75859 6.58658 6.75872 6.58633C6.75906 6.58562 6.76193 6.57953 6.7722 6.56685C6.78293 6.55361 6.80551 6.52859 6.84667 6.4953C7.0254 6.35076 7.52111 6.092 8.37512 6.092V-3.908C3.04567 -3.908 -3.26088 -0.452796 -3.26088 6.748H6.73912ZM8.37512 6.092C9.11636 6.092 9.50761 6.26136 9.67716 6.36366C9.83379 6.45816 9.93829 6.5736 10.0197 6.75732L19.1626 2.70668C17.2746 -1.55464 13.1277 -3.908 8.37512 -3.908V6.092ZM10.0835 6.89566C9.71437 6.12661 9.45173 4.75033 10.1993 3.3318C10.8935 2.01471 12.0065 1.52477 12.5803 1.37602L15.0899 11.056C16.4197 10.7112 18.0788 9.82929 19.0459 7.99419C20.0665 6.05767 19.8039 4.03739 19.0987 2.56834L10.0835 6.89566ZM12.4814 1.40274L11.5854 1.65474L14.2928 11.2813L15.1888 11.0293L12.4814 1.40274ZM11.4152 1.70588C11.9901 1.52191 13.1026 1.37606 14.2932 1.97136C15.3129 2.48122 15.7297 3.21892 15.7799 3.30771L7.07431 8.22829C7.4885 8.96108 8.31134 10.1608 9.82106 10.9156C11.5017 11.7559 13.1881 11.6381 14.463 11.2301L11.4152 1.70588ZM15.8517 3.43927C14.1841 0.270762 11.1002 -0.800001 8.40312 -0.800001V9.2C8.55015 9.2 8.33907 9.22804 7.96778 9.03856C7.77745 8.94143 7.57829 8.80305 7.39542 8.62139C7.21316 8.44033 7.08565 8.25466 7.00253 8.09673L15.8517 3.43927ZM8.40312 -0.800001C6.79869 -0.800001 4.95391 -0.387857 3.36883 0.76309C1.65156 2.01002 0.407124 4.04339 0.407124 6.552H10.4071C10.4071 6.97076 10.3036 7.44988 10.0576 7.90883C9.81827 8.35535 9.50929 8.66258 9.24442 8.85491C8.75834 9.20786 8.41156 9.2 8.40312 9.2V-0.800001ZM0.407124 6.552C0.407124 7.69367 0.667822 9.295 1.85043 10.8247C2.94137 12.2358 4.44021 13.0922 5.93419 13.6471L9.41606 4.27287C8.95004 4.09978 9.31488 4.13022 9.76182 4.70832C9.99505 5.01 10.176 5.36735 10.2864 5.74679C10.392 6.10927 10.4071 6.40153 10.4071 6.552H0.407124ZM5.95104 13.6533L8.69504 14.6613L12.1432 5.27465L9.39921 4.26665L5.95104 13.6533ZM8.88302 14.7262C10.0132 15.091 10.3971 15.4771 10.474 15.5671C10.5117 15.6113 10.5059 15.617 10.4947 15.5867C10.4842 15.5585 10.4872 15.5477 10.4875 15.5737L20.4867 15.4503C20.4254 10.4792 16.9694 6.82855 11.9552 5.20981L8.88302 14.7262ZM10.4871 15.512C10.4871 15.6257 10.4756 15.6961 10.4678 15.7313C10.4637 15.7495 10.4601 15.7611 10.4579 15.7673C10.4558 15.7735 10.4544 15.7762 10.4543 15.7764C10.4542 15.7766 10.4544 15.7762 10.4546 15.7759C10.4548 15.7756 10.454 15.777 10.4512 15.7804C10.4464 15.7863 10.4286 15.8067 10.3882 15.8382C10.2121 15.9751 9.59533 16.308 8.31912 16.308V26.308C11.1869 26.308 14.1542 25.5769 16.5261 23.7328C19.0296 21.7865 20.4871 18.8752 20.4871 15.512H10.4871ZM20.9154 9.296H15.9154L25.6208 10.987L20.9154 9.296ZM18.4794 16C19.0059 16 20.1442 16.1607 21.1434 17.16C22.1427 18.1592 22.3034 19.2975 22.3034 19.824H12.3034C12.3034 21.1065 12.6741 22.8328 14.0724 24.231C15.4706 25.6293 17.1969 26 18.4794 26V16ZM22.3034 19.824V7.98H12.3034V19.824H22.3034ZM22.3034 7.98C22.3034 8.5025 22.1469 9.59246 21.2039 10.5686C20.2357 11.5707 19.0943 11.776 18.4794 11.776V1.776C17.1085 1.776 15.3791 2.2053 14.0119 3.62044C12.6699 5.00954 12.3034 6.7015 12.3034 7.98H22.3034ZM18.4794 11.776H19.7114V1.776H18.4794V11.776ZM19.7114 11.776C19.1027 11.776 18.008 11.5766 17.0614 10.63C16.1148 9.68343 15.9154 8.58872 15.9154 7.98H25.9154C25.9154 6.61527 25.492 4.91857 24.1324 3.55896C22.7728 2.19936 21.0761 1.776 19.7114 1.776V11.776ZM15.9154 7.98V9.296H25.9154V7.98H15.9154ZM25.6208 10.987C25.5976 11.0515 25.5514 11.1441 25.473 11.2412C25.3949 11.3378 25.3103 11.4073 25.2402 11.4511C25.0984 11.5396 25.1141 11.468 25.4234 11.468V1.468C21.5929 1.468 17.7123 3.42481 16.21 7.60501L25.6208 10.987ZM25.4234 11.468C25.6823 11.468 25.7367 11.5132 25.6711 11.4837C25.594 11.4491 25.5212 11.388 25.4858 11.3439C25.4434 11.291 25.7434 11.6485 25.7434 12.88H35.7434C35.7434 10.2195 35.1194 7.37098 33.285 5.08506C31.3265 2.64465 28.4846 1.468 25.4234 1.468V11.468ZM25.7434 12.88V19.824H35.7434V12.88H25.7434ZM25.7434 19.824C25.7434 19.2091 25.9487 18.0677 26.9508 17.0995C27.9269 16.1565 29.0169 16 29.5394 16V26C30.8179 26 32.5099 25.6335 33.899 24.2915C35.3141 22.9243 35.7434 21.1949 35.7434 19.824H25.7434ZM29.5394 16H28.3074V26H29.5394V16ZM28.3074 16C28.8339 16 29.9722 16.1607 30.9714 17.16C31.9707 18.1592 32.1314 19.2975 32.1314 19.824H22.1314C22.1314 21.1065 22.5021 22.8328 23.9004 24.231C25.2986 25.6293 27.0249 26 28.3074 26V16ZM32.1314 19.824V13.048H22.1314V19.824H32.1314ZM32.1314 13.048C32.1314 11.1899 31.7369 9.06835 30.3709 7.29994C28.8739 5.36196 26.7053 4.492 24.5834 4.492V14.492C24.3209 14.492 23.9341 14.4405 23.5037 14.2409C23.0615 14.0358 22.7054 13.7347 22.457 13.4131C21.9939 12.8136 22.1314 12.4701 22.1314 13.048H32.1314ZM24.5834 4.492C22.7088 4.492 20.5037 5.16923 18.7372 6.86849C16.8669 8.66756 15.9154 11.192 15.9154 14.056H25.9154C25.9154 13.7203 25.9681 13.6281 25.9426 13.6934C25.9135 13.7682 25.8324 13.919 25.6696 14.0755C25.5155 14.2237 25.3412 14.3265 25.1723 14.3907C25.0155 14.4503 24.8247 14.492 24.5834 14.492V4.492ZM15.9154 14.056V19.824H25.9154V14.056H15.9154ZM15.9154 19.824C15.9154 19.2091 16.1207 18.0677 17.1228 17.0995C18.0989 16.1565 19.1889 16 19.7114 16V26C20.9899 26 22.6819 25.6335 24.071 24.2915C25.4861 22.9243 25.9154 21.1949 25.9154 19.824H15.9154ZM19.7114 16H18.4794V26H19.7114V16ZM44.1086 8.904L40 11.7535L49.1086 24.8868V8.904H44.1086ZM44.1086 18.872H49.1086V2.88921L40 16.0225L44.1086 18.872ZM44.1646 13.888L49.1643 13.9429L49.1649 13.888L49.1643 13.8331L44.1646 13.888ZM39.2926 16.308C38.6375 16.308 38.2417 16.0785 37.9685 15.7795C37.6625 15.4445 37.3486 14.8256 37.3486 13.888H27.3486C27.3486 20.3586 31.9996 26.308 39.2926 26.308V16.308ZM37.3486 13.888C37.3486 12.9504 37.6625 12.3315 37.9685 11.9965C38.2417 11.6975 38.6375 11.468 39.2926 11.468V1.468C31.9996 1.468 27.3486 7.41735 27.3486 13.888H37.3486ZM39.2926 11.468C39.6106 11.468 39.7548 11.5263 39.794 11.545C39.8153 11.5552 39.8344 11.5671 39.858 11.5873C39.8819 11.6078 39.9321 11.6556 40 11.7535L48.2172 6.05451C45.9307 2.75778 42.5293 1.468 39.2926 1.468V11.468ZM49.1086 8.904V7.98H39.1086V8.904H49.1086ZM49.1086 7.98C49.1086 8.5025 48.9521 9.59246 48.009 10.5686C47.0409 11.5707 45.8995 11.776 45.2846 11.776V1.776C43.9137 1.776 42.1843 2.2053 40.8171 3.62044C39.4751 5.00954 39.1086 6.7015 39.1086 7.98H49.1086ZM45.2846 11.776H46.5166V1.776H45.2846V11.776ZM46.5166 11.776C45.9079 11.776 44.8132 11.5766 43.8666 10.63C42.92 9.68343 42.7206 8.58873 42.7206 7.98H52.7206C52.7206 6.61527 52.2972 4.91856 50.9376 3.55896C49.578 2.19936 47.8813 1.776 46.5166 1.776V11.776ZM42.7206 7.98V19.824H52.7206V7.98H42.7206ZM42.7206 19.824C42.7206 19.2091 42.9259 18.0677 43.928 17.0995C44.9041 16.1565 45.9941 16 46.5166 16V26C47.7951 26 49.4871 25.6335 50.8762 24.2915C52.2913 22.9243 52.7206 21.1949 52.7206 19.824H42.7206ZM46.5166 16H45.2846V26H46.5166V16ZM45.2846 16C45.8111 16 46.9494 16.1607 47.9486 17.16C48.9479 18.1592 49.1086 19.2975 49.1086 19.824H39.1086C39.1086 21.1065 39.4793 22.8328 40.8776 24.231C42.2758 25.6293 44.0021 26 45.2846 26V16ZM49.1086 19.824V18.872H39.1086V19.824H49.1086ZM40 16.0225C39.9321 16.1204 39.8819 16.1682 39.858 16.1887C39.8344 16.2089 39.8153 16.2208 39.794 16.231C39.7548 16.2497 39.6106 16.308 39.2926 16.308V26.308C42.5293 26.308 45.9307 25.0182 48.2172 21.7215L40 16.0225ZM39.9926 23.312C42.5651 23.312 44.9547 22.3095 46.6741 20.4496C48.3562 18.63 49.1386 16.2792 49.1643 13.9429L39.1649 13.8331C39.1626 14.0448 39.105 13.906 39.3311 13.6614C39.4401 13.5435 39.5799 13.4441 39.7304 13.3798C39.8803 13.3159 39.9812 13.312 39.9926 13.312V23.312ZM49.1643 13.8331C49.1386 11.4968 48.3562 9.14598 46.6741 7.32639C44.9547 5.46646 42.5651 4.464 39.9926 4.464V14.464C39.9812 14.464 39.8803 14.4601 39.7304 14.3962C39.5799 14.3319 39.4401 14.2325 39.3311 14.1146C39.105 13.87 39.1626 13.7312 39.1649 13.9429L49.1643 13.8331ZM39.9926 4.464C37.2862 4.464 34.881 5.5854 33.2236 7.5204C31.6371 9.37269 30.9606 11.6912 30.9606 13.888H40.9606C40.9606 13.6768 41.0261 13.7833 40.8185 14.0256C40.7091 14.1534 40.5521 14.2794 40.3606 14.3667C40.1679 14.4545 40.0263 14.464 39.9926 14.464V4.464ZM30.9606 13.888C30.9606 16.0884 31.6316 18.4154 33.2307 20.2743C34.9002 22.215 37.309 23.312 39.9926 23.312V13.312C40.0162 13.312 40.1523 13.3193 40.344 13.4057C40.5355 13.4921 40.6967 13.6193 40.8115 13.7527C41.0316 14.0086 40.9606 14.1236 40.9606 13.888H30.9606ZM61.9542 7.672L59.4158 11.9797L59.4253 11.9853L59.4349 11.9909L61.9542 7.672ZM62.2342 9.324L66.1386 12.4475L66.1649 12.4146L66.1906 12.3812L62.2342 9.324ZM61.8982 9.744L57.9939 6.62053L57.9221 6.71023L57.8545 6.80314L61.8982 9.744ZM60.2462 10.052L58.0102 14.5241L58.0462 14.5422L58.0826 14.5596L60.2462 10.052ZM60.2462 17.752L62.3866 22.2707L62.3983 22.2652L62.4099 22.2596L60.2462 17.752ZM61.8982 18.032L57.8295 20.9382L57.8633 20.9855L57.8982 21.032L61.8982 18.032ZM62.2342 18.48L66.2779 15.5391L66.2563 15.5094L66.2342 15.48L62.2342 18.48ZM61.6182 20.3L59.3284 15.8551L59.2698 15.8853L59.2119 15.9171L61.6182 20.3ZM57.5862 16.308C56.1995 16.308 55.4438 15.8729 55.0775 15.5294C54.7155 15.1898 54.4662 14.6999 54.4662 14H44.4662C44.4662 21.119 50.1481 26.308 57.5862 26.308V16.308ZM54.4662 14C54.4662 13.1656 54.7546 12.6041 55.1147 12.2512C55.4608 11.912 56.1807 11.468 57.5862 11.468V1.468C53.8958 1.468 50.5556 2.71795 48.1158 5.10876C45.6898 7.48593 44.4662 10.6904 44.4662 14H54.4662ZM57.5862 11.468C58.0782 11.468 58.7386 11.5807 59.4158 11.9797L64.4927 3.36431C62.0338 1.91533 59.5583 1.468 57.5862 1.468V11.468ZM59.4349 11.9909C58.8038 11.6228 57.8296 10.7309 57.5864 9.19691C57.3559 7.74303 57.942 6.70136 58.2778 6.26676L66.1906 12.3812C67.0025 11.3306 67.7845 9.65897 67.463 7.63109C67.1288 5.52308 65.7766 4.11322 64.4736 3.35311L59.4349 11.9909ZM58.3299 6.20053L57.9939 6.62053L65.8026 12.8675L66.1386 12.4475L58.3299 6.20053ZM57.8545 6.80314C58.1502 6.39667 58.9692 5.53712 60.3968 5.31463C61.6008 5.12699 62.4071 5.54307 62.4099 5.54439L58.0826 14.5596C58.7853 14.8969 60.1936 15.467 61.9366 15.1954C63.9033 14.8889 65.1983 13.7073 65.9419 12.6849L57.8545 6.80314ZM62.4823 5.57986C60.3735 4.52546 58.3736 4.492 57.7822 4.492V14.492C57.7908 14.492 57.8443 14.492 57.9192 14.5045C57.9555 14.5105 57.9846 14.5176 58.0048 14.5237C58.0249 14.5299 58.0254 14.5318 58.0102 14.5241L62.4823 5.57986ZM57.7822 4.492C52.6586 4.492 48.0782 8.20954 48.0782 13.888H58.0782C58.0782 13.8879 58.0782 13.8931 58.0772 13.9034C58.0762 13.9136 58.0743 13.9282 58.0706 13.9465C58.063 13.9841 58.0492 14.0323 58.0256 14.0872C57.9762 14.2023 57.9009 14.3072 57.8146 14.3874C57.6291 14.5597 57.5475 14.492 57.7822 14.492V4.492ZM48.0782 13.888C48.0782 19.5741 52.6368 23.312 57.7822 23.312V13.312C57.5479 13.312 57.6343 13.2449 57.8228 13.4207C57.9101 13.5022 57.9837 13.6066 58.0309 13.7173C58.0781 13.8281 58.0782 13.8961 58.0782 13.888H48.0782ZM57.7822 23.312C58.493 23.312 60.3873 23.2177 62.3866 22.2707L58.1058 13.2333C58.097 13.2375 58.0715 13.2485 58.0274 13.2616C57.9836 13.2747 57.9335 13.2864 57.8812 13.2955C57.8292 13.3046 57.7861 13.3093 57.7596 13.3114C57.731 13.3137 57.7349 13.312 57.7822 13.312V23.312ZM62.4099 22.2596C62.3701 22.2787 61.6159 22.6568 60.479 22.4965C59.0992 22.3019 58.2228 21.4888 57.8295 20.9382L65.9669 15.1258C65.1536 13.9872 63.8012 12.8661 61.8754 12.5945C60.1926 12.3572 58.8224 12.8893 58.0826 13.2444L62.4099 22.2596ZM57.8982 21.032L58.2342 21.48L66.2342 15.48L65.8982 15.032L57.8982 21.032ZM58.1905 21.4209C57.7039 20.7517 57.2088 19.4981 57.6473 18.0203C58.0598 16.6299 59.0107 16.0188 59.3284 15.8551L63.908 24.7449C65.1498 24.1052 66.6327 22.8921 67.2342 20.8647C67.8617 18.7499 67.2125 16.8243 66.2779 15.5391L58.1905 21.4209ZM59.2119 15.9171C58.6929 16.2021 58.1132 16.308 57.5862 16.308V26.308C59.3553 26.308 61.6876 25.9659 64.0245 24.6829L59.2119 15.9171ZM70.3566 18.088L66.0431 20.6166L66.0497 20.6278L66.0564 20.639L70.3566 18.088ZM67.9766 14.028L72.2901 11.4994L62.9766 -4.38832V14.028H67.9766ZM67.9766 12.656H62.9766V27.4848L71.9558 15.6836L67.9766 12.656ZM71.8966 7.504L75.8758 10.5316L75.9703 10.4074L76.0569 10.2775L71.8966 7.504ZM75.4806 8.232L79.3808 11.3607L79.3966 11.341L79.4122 11.3211L75.4806 8.232ZM71.3926 13.328L67.4925 10.1993L65.2535 12.9903L67.1728 16.0101L71.3926 13.328ZM73.4926 16.632L69.2728 19.3141L69.3021 19.3601L69.3324 19.4055L73.4926 16.632ZM76.7966 18.088L75.1325 13.373L75.0354 13.4073L74.9397 13.4456L76.7966 18.088ZM77.7766 18.396L82.2716 16.2062L82.1995 16.0582L82.1178 15.9153L77.7766 18.396ZM78.3086 19.488L73.8137 21.6778L73.825 21.701L73.8365 21.7241L78.3086 19.488ZM77.6366 20.748L79.8727 25.2201L79.8727 25.2201L77.6366 20.748ZM75.1166 16.308C74.9774 16.308 74.9813 16.2889 75.0699 16.32C75.1615 16.3522 75.2343 16.3996 75.2667 16.4257C75.2865 16.4417 75.2393 16.4083 75.126 16.2595C75.0073 16.1035 74.8628 15.8841 74.6569 15.537L66.0564 20.639C66.5944 21.5461 67.5085 23.0155 68.9885 24.2093C70.6275 25.5313 72.6825 26.308 75.1166 26.308V16.308ZM74.6701 15.5594L72.2901 11.4994L63.6631 16.5566L66.0431 20.6166L74.6701 15.5594ZM62.9766 14.028V19.824H72.9766V14.028H62.9766ZM62.9766 19.824C62.9766 19.2091 63.1819 18.0677 64.1841 17.0995C65.1602 16.1565 66.2501 16 66.7726 16V26C68.0511 26 69.7431 25.6335 71.1322 24.2915C72.5473 22.9243 72.9766 21.1949 72.9766 19.824H62.9766ZM66.7726 16H65.5406V26H66.7726V16ZM65.5406 16C66.0671 16 67.2054 16.1607 68.2047 17.16C69.2039 18.1592 69.3646 19.2975 69.3646 19.824H59.3646C59.3646 21.1065 59.7353 22.8328 61.1336 24.231C62.5318 25.6293 64.2581 26 65.5406 26V16ZM69.3646 19.824V1.932H59.3646V19.824H69.3646ZM69.3646 1.932C69.3646 2.45853 69.2039 3.59678 68.2047 4.59603C67.2054 5.59529 66.0672 5.756 65.5406 5.756V-4.244C64.2581 -4.244 62.5318 -3.87329 61.1336 -2.47503C59.7353 -1.07678 59.3646 0.649472 59.3646 1.932H69.3646ZM65.5406 5.756H66.7726V-4.244H65.5406V5.756ZM66.7726 5.756C66.2501 5.756 65.1602 5.59947 64.1841 4.65645C63.1819 3.68828 62.9766 2.54691 62.9766 1.932H72.9766C72.9766 0.561088 72.5473 -1.16829 71.1322 -2.53546C69.7431 -3.87747 68.0511 -4.244 66.7726 -4.244V5.756ZM62.9766 1.932V12.656H72.9766V1.932H62.9766ZM71.9558 15.6836L75.8758 10.5316L67.9175 4.47639L63.9975 9.62839L71.9558 15.6836ZM76.0569 10.2775C75.8285 10.6201 75.4103 11.0786 74.7578 11.4097C74.1286 11.729 73.5837 11.776 73.3246 11.776V1.776C72.4215 1.776 71.3307 1.93495 70.2325 2.49225C69.111 3.06137 68.3008 3.88393 67.7364 4.7305L76.0569 10.2775ZM73.3246 11.776H74.7806V1.776H73.3246V11.776ZM74.7806 11.776C74.452 11.776 72.3069 11.6429 71.2209 9.35043C70.1564 7.10309 71.3566 5.3878 71.549 5.14289L79.4122 11.3211C80.2206 10.2922 81.5748 7.84891 80.2583 5.06957C78.9204 2.24506 76.1173 1.776 74.7806 1.776V11.776ZM71.5805 5.1033L67.4925 10.1993L75.2928 16.4567L79.3808 11.3607L71.5805 5.1033ZM67.1728 16.0101L69.2728 19.3141L77.7124 13.9499L75.6124 10.6459L67.1728 16.0101ZM69.3324 19.4055C69.6629 19.9014 70.338 20.9286 71.3397 21.7444C72.6231 22.7897 74.1332 23.284 75.7326 23.284V13.284C75.9323 13.284 76.2716 13.3124 76.6782 13.4527C77.0944 13.5962 77.4237 13.8026 77.6546 13.9906C77.8602 14.158 77.952 14.2823 77.9238 14.2467C77.892 14.2065 77.8175 14.1054 77.6529 13.8585L69.3324 19.4055ZM75.7326 23.284C76.2388 23.284 77.4014 23.2313 78.6536 22.7304L74.9397 13.4456C75.1887 13.346 75.3714 13.3143 75.4479 13.303C75.5315 13.2906 75.6177 13.284 75.7326 13.284V23.284ZM78.4607 22.803C78.279 22.8671 77.2404 23.2246 75.8958 22.8063C74.407 22.3431 73.6783 21.3018 73.4354 20.8767L82.1178 15.9153C81.6509 15.0982 80.6702 13.8189 78.8665 13.2577C77.2069 12.7414 75.7902 13.1409 75.1325 13.373L78.4607 22.803ZM73.2817 20.5858L73.8137 21.6778L82.8036 17.2982L82.2716 16.2062L73.2817 20.5858ZM73.8365 21.7241C73.2969 20.6449 73.2071 19.2764 73.7772 18.0378C74.2944 16.9143 75.1032 16.4245 75.4006 16.2759L79.8727 25.2201C80.898 24.7075 82.1409 23.7837 82.861 22.2192C83.6342 20.5396 83.5164 18.7231 82.7808 17.2519L73.8365 21.7241ZM75.4006 16.2759C75.4219 16.2652 75.4022 16.2785 75.3276 16.2915C75.2559 16.304 75.1823 16.308 75.1166 16.308V26.308C75.9428 26.308 77.8545 26.2292 79.8727 25.2201L75.4006 16.2759ZM78.2653 18.508L73.7603 20.6771L73.7896 20.7378L73.8204 20.7978L78.2653 18.508ZM79.0493 17.024L77.925 12.152L77.8595 12.1672L77.7945 12.184L79.0493 17.024ZM79.7773 16.856L80.9016 21.728L80.9459 21.7177L80.99 21.7067L79.7773 16.856ZM81.2613 17.528L85.1311 14.3618L85.0612 14.2763L84.9875 14.194L81.2613 17.528ZM84.2013 15.484L85.91 10.785L85.8896 10.7776L85.8692 10.7704L84.2013 15.484ZM82.3813 14.84L84.0492 10.1264L83.9511 10.0917L83.8517 10.0611L82.3813 14.84ZM88.0373 8.736L83.7184 11.2554L83.7827 11.3655L83.8525 11.4722L88.0373 8.736ZM87.3373 10.248L86.1246 5.39729L86.0999 5.40347L86.0752 5.40991L87.3373 10.248ZM86.6933 10.416L87.906 15.2667L87.9307 15.2605L87.9554 15.2541L86.6933 10.416ZM85.2093 9.856L81.3682 13.0569L81.4648 13.1729L81.5683 13.2828L85.2093 9.856ZM83.3893 12.096L85.0534 7.38105L84.9867 7.3575L84.9194 7.33586L83.3893 12.096ZM85.2933 12.768L83.6292 17.483L83.7058 17.51L83.7831 17.5345L85.2933 12.768ZM89.0453 16.94H94.0453V16.8969L94.0446 16.8538L89.0453 16.94ZM83.6133 16.308C83.0718 16.308 82.7758 16.1979 82.6737 16.1459C82.6274 16.1223 82.6266 16.1143 82.6485 16.1355C82.6726 16.1588 82.6958 16.1904 82.7102 16.2182L73.8204 20.7978C75.8854 24.8063 79.9938 26.308 83.6133 26.308V16.308ZM82.7703 16.3389C83.1154 17.0557 83.4484 18.5458 82.5562 20.0754C81.7926 21.3844 80.6691 21.7694 80.3041 21.864L77.7945 12.184C76.6735 12.4746 74.976 13.2236 73.9184 15.0366C72.7322 17.0702 73.0512 19.2043 73.7603 20.6771L82.7703 16.3389ZM80.1736 21.896L80.9016 21.728L78.653 11.984L77.925 12.152L80.1736 21.896ZM80.99 21.7067C80.7125 21.7761 80.2702 21.8456 79.7202 21.7897C79.1482 21.7316 78.6385 21.556 78.2223 21.3319C77.8403 21.1262 77.6024 20.9145 77.5226 20.8405C77.451 20.7741 77.4321 20.7468 77.5351 20.862L84.9875 14.194C84.8093 13.9948 84.0703 13.1232 82.9633 12.5271C81.4974 11.7378 79.9435 11.6606 78.5646 12.0053L80.99 21.7067ZM77.3915 20.6942C78.9914 22.6495 81.3808 23.536 83.6133 23.536V13.536C83.7846 13.536 84.0036 13.5695 84.2524 13.6776C84.4958 13.7835 84.8248 13.9875 85.1311 14.3618L77.3915 20.6942ZM83.6133 23.536C86.2107 23.536 90.7133 21.8399 90.7133 16.968H80.7133C80.7133 15.6512 81.3978 14.6371 82.1133 14.0971C82.7686 13.6024 83.3595 13.536 83.6133 13.536V23.536ZM90.7133 16.968C90.7133 15.0392 89.8608 13.4348 88.6349 12.3397C87.6377 11.4489 86.5172 11.0058 85.91 10.785L82.4926 20.183C82.8094 20.2982 82.4449 20.2191 81.9727 19.7973C81.6879 19.5429 81.3424 19.1467 81.0802 18.5876C80.8129 18.0178 80.7133 17.4512 80.7133 16.968H90.7133ZM85.8692 10.7704L84.0492 10.1264L80.7134 19.5536L82.5334 20.1976L85.8692 10.7704ZM83.8517 10.0611C83.595 9.9821 83.3989 9.90286 83.2607 9.83369C83.1196 9.76308 83.0958 9.73138 83.1385 9.76949C83.1902 9.81562 83.3245 9.95239 83.4407 10.1937C83.564 10.4497 83.6013 10.688 83.6013 10.836H73.6013C73.6013 13.6194 74.8552 15.7799 76.4791 17.2295C77.9573 18.5491 79.6728 19.2379 80.9109 19.6189L83.8517 10.0611ZM83.6013 10.836C83.6013 10.9011 83.5856 11.0215 83.5217 11.1619C83.4586 11.3004 83.3742 11.4024 83.3026 11.4653C83.1539 11.5958 83.184 11.468 83.6133 11.468V1.468C78.5459 1.468 73.6013 4.96059 73.6013 10.836H83.6013ZM83.6133 11.468C83.7914 11.468 83.9096 11.4829 83.9764 11.4958C84.0414 11.5083 84.0432 11.516 84.0028 11.497C83.958 11.476 83.8907 11.4357 83.8223 11.3735C83.7901 11.3442 83.7644 11.3163 83.7455 11.2927C83.7266 11.2693 83.7184 11.2553 83.7184 11.2554L92.3562 6.21664C90.1856 2.49568 86.5093 1.468 83.6133 1.468V11.468ZM83.8525 11.4722C83.3751 10.7421 82.8193 9.12405 83.7237 7.38474C84.4798 5.93081 85.7039 5.50248 86.1246 5.39729L88.55 15.0987C89.7547 14.7975 91.5669 13.9772 92.5959 11.9983C93.7733 9.73395 93.1755 7.45787 92.2222 5.99975L83.8525 11.4722ZM86.0752 5.40991L85.4312 5.57791L87.9554 15.2541L88.5994 15.0861L86.0752 5.40991ZM85.4806 5.56529C85.6998 5.51049 86.0585 5.44879 86.5147 5.47381C86.991 5.49993 87.4561 5.61424 87.8787 5.7999C88.6243 6.12752 88.9975 6.58558 88.8503 6.42918L81.5683 13.2828C81.8691 13.6024 82.6483 14.4245 83.8559 14.9551C85.285 15.583 86.7067 15.5665 87.906 15.2667L85.4806 5.56529ZM89.0504 6.65507C87.3332 4.59442 85.0684 4.212 83.6693 4.212V14.212C83.5522 14.212 83.2008 14.2001 82.743 14.0292C82.238 13.8407 81.7461 13.5104 81.3682 13.0569L89.0504 6.65507ZM83.6693 4.212C82.0897 4.212 80.3948 4.71199 79.035 5.94389C77.6624 7.18725 76.9333 8.91745 76.9333 10.696H86.9333C86.9333 11.6625 86.5262 12.6508 85.7487 13.3551C84.9838 14.048 84.1569 14.212 83.6693 14.212V4.212ZM76.9333 10.696C76.9333 12.8146 77.9729 14.4211 79.1466 15.4096C80.152 16.2562 81.2452 16.6588 81.8593 16.8561L84.9194 7.33586C84.7494 7.28123 85.1146 7.36181 85.588 7.76044C85.862 7.9912 86.2182 8.36689 86.5013 8.91989C86.7954 9.49451 86.9333 10.1114 86.9333 10.696H76.9333ZM81.7252 16.811L83.6292 17.483L86.9574 8.05305L85.0534 7.38105L81.7252 16.811ZM83.7831 17.5345C84.5064 17.7636 84.4962 17.9316 84.3113 17.6999C84.2249 17.5916 84.1494 17.454 84.1005 17.307C84.054 17.1673 84.0467 17.0655 84.0461 17.0262L94.0446 16.8538C94.0146 15.1155 93.4998 13.1819 92.1273 11.4621C90.7804 9.77438 88.9083 8.66838 86.8035 8.00151L83.7831 17.5345ZM84.0453 16.94C84.0453 16.8976 84.0603 16.7322 84.1673 16.5258C84.2702 16.3274 84.3934 16.2155 84.4486 16.1747C84.4939 16.1412 84.4611 16.1779 84.3041 16.2232C84.1489 16.268 83.9157 16.308 83.6133 16.308V26.308C85.8624 26.308 88.3406 25.7337 90.3941 24.2153C92.5945 22.5882 94.0453 20.0372 94.0453 16.94H84.0453Z" fill="white" mask="url(#path-1-outside-1_2325_4302)"/>
<path d="M8.31912 21.308C4.73512 21.308 2.18712 19.656 1.15112 17.192C0.843124 16.464 1.23512 15.932 1.99112 15.764L2.97112 15.512C3.69912 15.344 4.06312 15.624 4.45512 16.296C5.09912 17.416 6.47112 18.228 8.26312 18.228C10.5031 18.228 11.8751 17.192 11.8751 15.708C11.8751 14.476 10.8951 13.636 9.35512 13.076L6.63912 12.124C3.61512 11.144 1.73912 9.156 1.73912 6.748C1.73912 3.248 4.76312 1.092 8.37512 1.092C11.4271 1.092 13.6111 2.52 14.5911 4.732C14.9271 5.432 14.5911 6.02 13.8351 6.216L12.9391 6.468C12.2391 6.692 11.7911 6.412 11.4271 5.768C10.8671 4.704 9.83112 4.2 8.40312 4.2C6.80712 4.2 5.40712 5.04 5.40712 6.552C5.40712 7.308 5.71512 8.232 7.67512 8.96L10.4191 9.968C13.9751 11.116 15.4591 13.244 15.4871 15.512C15.4871 19.18 12.4631 21.308 8.31912 21.308ZM18.4794 21C17.7234 21 17.3034 20.58 17.3034 19.824V7.98C17.3034 7.224 17.7234 6.776 18.4794 6.776H19.7114C20.4674 6.776 20.9154 7.224 20.9154 7.98V9.296C21.5594 7.504 23.2394 6.468 25.4234 6.468C28.8954 6.468 30.7434 8.988 30.7434 12.88V19.824C30.7434 20.58 30.2954 21 29.5394 21H28.3074C27.5514 21 27.1314 20.58 27.1314 19.824V13.048C27.1314 10.612 26.0674 9.492 24.5834 9.492C23.1274 9.492 20.9154 10.584 20.9154 14.056V19.824C20.9154 20.58 20.4674 21 19.7114 21H18.4794ZM39.2926 21.308C35.1766 21.308 32.3486 18.032 32.3486 13.888C32.3486 9.744 35.1766 6.468 39.2926 6.468C41.1686 6.468 42.9046 7.168 44.1086 8.904V7.98C44.1086 7.224 44.5286 6.776 45.2846 6.776H46.5166C47.2726 6.776 47.7206 7.224 47.7206 7.98V19.824C47.7206 20.58 47.2726 21 46.5166 21H45.2846C44.5286 21 44.1086 20.58 44.1086 19.824V18.872C42.9046 20.608 41.1686 21.308 39.2926 21.308ZM39.9926 18.312C42.4846 18.312 44.1366 16.436 44.1646 13.888C44.1366 11.34 42.4846 9.464 39.9926 9.464C37.4446 9.464 35.9606 11.48 35.9606 13.888C35.9606 16.324 37.4446 18.312 39.9926 18.312ZM57.5862 21.308C52.6022 21.308 49.4662 18.06 49.4662 14C49.4662 9.856 52.4902 6.468 57.5862 6.468C58.8182 6.468 60.3862 6.748 61.9542 7.672C62.6262 8.064 62.7102 8.708 62.2342 9.324L61.8982 9.744C61.4502 10.36 60.9462 10.388 60.2462 10.052C59.1822 9.52 58.1182 9.492 57.7822 9.492C55.0662 9.492 53.0782 11.312 53.0782 13.888C53.0782 16.492 55.0662 18.312 57.7822 18.312C58.1182 18.312 59.1822 18.256 60.2462 17.752C60.9462 17.416 61.4782 17.444 61.8982 18.032L62.2342 18.48C62.6822 19.096 62.5422 19.824 61.6182 20.3C60.1902 21.084 58.7342 21.308 57.5862 21.308ZM75.1166 21.308C72.5126 21.308 71.3366 19.74 70.3566 18.088L67.9766 14.028V19.824C67.9766 20.58 67.5286 21 66.7726 21H65.5406C64.7846 21 64.3646 20.58 64.3646 19.824V1.932C64.3646 1.176 64.7846 0.755999 65.5406 0.755999H66.7726C67.5286 0.755999 67.9766 1.176 67.9766 1.932V12.656L71.8966 7.504C72.2326 7 72.6806 6.776 73.3246 6.776H74.7806C75.7886 6.776 76.0966 7.448 75.4806 8.232L71.3926 13.328L73.4926 16.632C74.2206 17.724 74.6966 18.284 75.7326 18.284C75.9286 18.284 76.3766 18.256 76.7966 18.088C77.2726 17.92 77.5526 18.004 77.7766 18.396L78.3086 19.488C78.5046 19.88 78.3646 20.384 77.6366 20.748C76.6286 21.252 75.6206 21.308 75.1166 21.308ZM83.6133 21.308C81.2333 21.308 79.2173 20.356 78.2653 18.508C77.9013 17.752 78.2933 17.22 79.0493 17.024L79.7773 16.856C80.4493 16.688 80.7853 16.996 81.2613 17.528C81.7653 18.144 82.6333 18.536 83.6133 18.536C84.8453 18.536 85.7133 17.864 85.7133 16.968C85.7133 16.212 85.1253 15.82 84.2013 15.484L82.3813 14.84C80.5613 14.28 78.6013 13.16 78.6013 10.836C78.6013 8.316 80.6733 6.468 83.6133 6.468C85.4053 6.468 87.0573 7.056 88.0373 8.736C88.5133 9.464 88.1213 10.052 87.3373 10.248L86.6933 10.416C86.0213 10.584 85.6573 10.332 85.2093 9.856C84.7893 9.352 84.2293 9.212 83.6693 9.212C82.5773 9.212 81.9333 9.884 81.9333 10.696C81.9333 11.452 82.6053 11.844 83.3893 12.096L85.2933 12.768C88.1213 13.664 89.0173 15.316 89.0453 16.94C89.0453 19.796 86.5253 21.308 83.6133 21.308Z" fill="#F5A800"/>
</svg>
